<?xml version="1.0" encoding="UTF-8"?>
<!DOCTYPE svg PUBLIC "-//W3C//DTD SVG 1.1//EN" "http://www.w3.org/Graphics/SVG/1.1/DTD/svg11.dtd">
<!-- Creator: CorelDRAW -->
<svg xmlns="http://www.w3.org/2000/svg" xml:space="preserve" width="6.82666in" height="6.82666in" style="shape-rendering:geometricPrecision; text-rendering:geometricPrecision; image-rendering:optimizeQuality; fill-rule:evenodd; clip-rule:evenodd"
viewBox="0 0 6.82666 6.82666"
 xmlns:xlink="http://www.w3.org/1999/xlink">
 <defs>
  <style type="text/css">
   <![CDATA[
    .fil2 {fill:none}
    .fil17 {fill:none;fill-rule:nonzero}
    .fil20 {fill:#212121}
    .fil3 {fill:#424242}
    .fil9 {fill:#79ACC4}
    .fil7 {fill:#81C784}
    .fil11 {fill:#A14A4A}
    .fil6 {fill:#B3E5FC}
    .fil4 {fill:#DEC3B6}
    .fil8 {fill:#E1F5FE}
    .fil10 {fill:#E35252}
    .fil1 {fill:#E64A19}
    .fil5 {fill:#EDD0C2}
    .fil0 {fill:#FF7043}
    .fil21 {fill:#FFDDCC}
    .fil12 {fill:white}
    .fil19 {fill:#00211C;fill-rule:nonzero}
    .fil14 {fill:#004D40;fill-rule:nonzero}
    .fil18 {fill:#00796B;fill-rule:nonzero}
    .fil13 {fill:#00897B;fill-rule:nonzero}
    .fil15 {fill:#424242;fill-rule:nonzero}
    .fil16 {fill:#616161;fill-rule:nonzero}
   ]]>
  </style>
   <clipPath id="id0">
    <path d="M3.41333 0c1.88513,0 3.41333,1.5282 3.41333,3.41333 0,1.88513 -1.5282,3.41333 -3.41333,3.41333 -1.88513,0 -3.41333,-1.5282 -3.41333,-3.41333 0,-1.88513 1.5282,-3.41333 3.41333,-3.41333z"/>
   </clipPath>
 </defs>
 <g id="Layer_x0020_1">
  <metadata id="CorelCorpID_0Corel-Layer"/>
  <path class="fil0" d="M3.41333 0c1.88513,0 3.41333,1.5282 3.41333,3.41333 0,1.88513 -1.5282,3.41333 -3.41333,3.41333 -1.88513,0 -3.41333,-1.5282 -3.41333,-3.41333 0,-1.88513 1.5282,-3.41333 3.41333,-3.41333z"/>
  <g style="clip-path:url(#id0)">
   <g id="_435566008">
    <g>
     <polygon id="_4312250481" class="fil1" points="4.30272,3.49281 8.08899,7.27908 8.08129,7.27111 8.07326,7.26332 8.06492,7.25571 8.05628,7.24826 8.04735,7.24094 8.03815,7.23374 8.02869,7.22663 8.01898,7.21961 8.00904,7.21264 7.99889,7.20572 7.98852,7.19881 7.97796,7.19191 7.96723,7.185 7.95633,7.17805 7.94528,7.17104 4.15901,3.38477 4.17006,3.39178 4.18096,3.39872 4.1917,3.40564 4.20225,3.41254 4.21262,3.41944 4.22278,3.42637 4.23271,3.43333 4.24242,3.44036 4.25188,3.44746 4.26108,3.45467 4.27001,3.46198 4.27865,3.46944 4.28699,3.47705 4.29502,3.48483 "/>
     <polygon id="_431225384" class="fil1" points="4.15901,3.38477 7.94528,7.17104 7.94845,7.18014 7.95206,7.18978 7.95608,7.19995 7.96048,7.21061 7.96522,7.22177 7.97027,7.2334 7.97559,7.24548 7.98116,7.25799 7.98693,7.27093 7.99288,7.28426 7.99897,7.29797 8.00517,7.31205 8.01144,7.32648 8.01775,7.34123 8.02406,7.3563 8.03035,7.37166 8.03658,7.3873 8.04272,7.4032 8.04872,7.41935 8.05457,7.43572 8.06022,7.45229 8.06565,7.46906 8.07081,7.48599 8.07567,7.50308 8.08021,7.52031 8.08438,7.53766 8.08816,7.55511 8.0915,7.57265 8.09439,7.59025 8.09678,7.60791 8.09863,7.62559 8.09993,7.64329 4.31366,3.85702 4.31237,3.83932 4.31051,3.82163 4.30812,3.80398 4.30524,3.78638 4.30189,3.76884 4.29811,3.75139 4.29394,3.73404 4.2894,3.71681 4.28454,3.69972 4.27938,3.68278 4.27395,3.66602 4.2683,3.64944 4.26246,3.63307 4.25645,3.61693 4.25031,3.60103 4.24409,3.58539 4.2378,3.57003 4.23148,3.55496 4.22517,3.5402 4.2189,3.52578 4.2127,3.5117 4.20661,3.49798 4.20067,3.48465 4.19489,3.47172 4.18933,3.45921 4.184,3.44713 4.17895,3.4355 4.17421,3.42434 4.16981,3.41368 4.1658,3.40351 4.16218,3.39387 "/>
     <polygon id="_431225456" class="fil1" points="4.2757,2.04284 8.06197,5.82911 8.07364,5.85578 8.08556,5.88416 8.09765,5.91422 8.10984,5.94597 8.12204,5.97938 8.13417,6.01444 8.14613,6.05114 8.15787,6.08946 8.16929,6.1294 8.18031,6.17094 8.19085,6.21406 8.20083,6.25875 8.21017,6.30501 8.21878,6.35281 8.22659,6.40214 8.2335,6.453 8.23945,6.50535 8.24435,6.55921 8.24811,6.61454 8.25066,6.67135 8.25191,6.7296 8.25178,6.7893 8.2502,6.85043 8.24707,6.91296 8.24232,6.97691 8.23586,7.04223 8.22762,7.10894 8.21751,7.177 8.20545,7.24642 8.19136,7.31717 8.17516,7.38924 8.15676,7.46263 4.37049,3.67635 4.38889,3.60297 4.40509,3.5309 4.41919,3.46015 4.43124,3.39073 4.44135,3.32267 4.44959,3.25596 4.45605,3.19063 4.4608,3.12669 4.46393,3.06415 4.46552,3.00303 4.46564,2.94333 4.46439,2.88507 4.46184,2.82827 4.45808,2.77294 4.45319,2.71908 4.44724,2.66672 4.44032,2.61587 4.43252,2.56654 4.42391,2.51874 4.41457,2.47248 4.40459,2.42779 4.39405,2.38467 4.38302,2.34313 4.37161,2.30319 4.35987,2.26487 4.3479,2.22817 4.33577,2.19311 4.32357,2.1597 4.31139,2.12795 4.29929,2.09789 4.28737,2.06951 "/>
     <polygon id="_431226488" class="fil1" points="4.31366,3.85702 8.09993,7.64329 8.10024,7.64988 8.10046,7.65646 8.10057,7.66303 8.10057,7.66959 8.10048,7.67614 8.10028,7.68268 8.09999,7.68922 8.0996,7.69574 8.09911,7.70226 8.09852,7.70877 8.09784,7.71528 8.09706,7.72177 8.09619,7.72826 8.09524,7.73475 8.09419,7.74122 8.09304,7.74769 4.30678,3.96142 4.30792,3.95495 4.30897,3.94848 4.30993,3.94199 4.3108,3.9355 4.31157,3.929 4.31225,3.9225 4.31284,3.91599 4.31333,3.90947 4.31372,3.90294 4.31402,3.89641 4.31421,3.88987 4.31431,3.88331 4.3143,3.87676 4.31419,3.87019 4.31398,3.86361 "/>
     <polygon id="_431226344" class="fil1" points="4.30678,3.96142 8.09304,7.74769 8.09476,7.75143 8.0963,7.75522 8.09769,7.75906 8.09893,7.76297 8.10002,7.76693 8.10096,7.77094 8.10177,7.775 8.10245,7.77911 8.103,7.78328 8.10343,7.78749 8.10374,7.79175 8.10394,7.79606 8.10404,7.80041 8.10403,7.8048 8.10393,7.80924 8.10374,7.81372 4.31747,4.02744 4.31766,4.02297 4.31776,4.01853 4.31777,4.01413 4.31767,4.00978 4.31747,4.00548 4.31716,4.00122 4.31673,3.99701 4.31618,3.99284 4.3155,3.98873 4.3147,3.98467 4.31375,3.98065 4.31266,3.9767 4.31143,3.97279 4.31004,3.96894 4.30849,3.96515 "/>
     <polygon id="_431226848" class="fil1" points="4.31747,4.02744 8.10374,7.81372 8.10371,7.8142 8.10369,7.81469 8.10366,7.81518 8.10363,7.81567 8.10361,7.81615 8.10358,7.81664 8.10356,7.81712 8.10353,7.81761 4.31726,4.03133 4.31729,4.03085 4.31731,4.03037 4.31734,4.02988 4.31737,4.0294 4.31739,4.02891 4.31742,4.02842 4.31744,4.02793 "/>
     <polygon id="_431226200" class="fil1" points="4.80944,4.34834 8.59571,8.13461 8.60786,8.14861 8.61968,8.16437 8.63119,8.18182 8.64239,8.2009 8.65329,8.22153 8.66391,8.24364 8.67426,8.26715 8.68436,8.292 8.69421,8.31811 8.70382,8.34542 8.71321,8.37384 8.72239,8.40331 8.73138,8.43375 8.74018,8.4651 8.7488,8.49728 8.75726,8.53021 8.76557,8.56383 8.77374,8.59807 8.78178,8.63285 8.78971,8.66809 8.79754,8.70374 8.80528,8.73972 8.81294,8.77594 8.82053,8.81235 8.82806,8.84887 8.83556,8.88543 8.84302,8.92195 8.85046,8.95837 8.8579,8.99461 8.86534,9.0306 8.8728,9.06627 5.08654,5.28 5.07907,5.24433 5.07163,5.20834 5.0642,5.1721 5.05675,5.13568 5.04929,5.09916 5.0418,5.0626 5.03426,5.02608 5.02667,4.98967 5.01901,4.95344 5.01128,4.91747 5.00344,4.88182 4.99552,4.84657 4.98747,4.8118 4.9793,4.77756 4.97099,4.74394 4.96253,4.711 4.95391,4.67883 4.94511,4.64748 4.93613,4.61704 4.92694,4.58757 4.91756,4.55915 4.90794,4.53184 4.89809,4.50573 4.888,4.48088 4.87765,4.45737 4.86702,4.43526 4.85612,4.41463 4.84492,4.39555 4.83341,4.37809 4.82159,4.36233 "/>
     <polygon id="_431226680" class="fil1" points="2.67047,3.49168 6.45674,7.27795 6.44079,7.28595 6.42589,7.29525 6.412,7.30572 6.39908,7.31725 6.38708,7.32972 6.37596,7.34304 6.36569,7.35706 6.3562,7.3717 6.34748,7.38681 6.33948,7.40231 6.33214,7.41807 6.32543,7.43396 6.31931,7.4499 6.31374,7.46574 6.30868,7.48139 6.30408,7.49673 6.29989,7.51163 6.29609,7.526 6.29263,7.53971 6.28946,7.55265 6.28654,7.56469 6.28383,7.57574 6.2813,7.58568 6.27889,7.59439 6.27656,7.60175 6.27428,7.60765 6.272,7.61198 6.26969,7.61462 6.26729,7.61546 6.26476,7.61438 2.4785,3.82811 2.48102,3.82919 2.48342,3.82835 2.48574,3.8257 2.48802,3.82138 2.4903,3.81548 2.49262,3.80811 2.49503,3.79941 2.49757,3.78947 2.50027,3.77842 2.50319,3.76637 2.50636,3.75344 2.50983,3.73973 2.51363,3.72536 2.51781,3.71046 2.52241,3.69512 2.52748,3.67947 2.53305,3.66363 2.53917,3.64769 2.54587,3.6318 2.55321,3.61604 2.56122,3.60054 2.56994,3.58543 2.57942,3.57079 2.5897,3.55676 2.60081,3.54345 2.61281,3.53098 2.62574,3.51944 2.63963,3.50898 2.65452,3.49968 "/>
     <polygon id="_431226392" class="fil1" points="4.40469,5.28 8.19095,9.06627 8.13363,9.06627 4.34736,5.28 "/>
     <polygon id="_431226728" class="fil1" points="4.34736,5.28 8.13363,9.06627 7.6694,9.06627 3.88313,5.28 "/>
     <polygon id="_431226560" class="fil1" points="3.88313,5.28 7.6694,9.06627 7.58986,9.06627 3.80359,5.28 "/>
     <polygon id="_431226296" class="fil1" points="3.80359,5.28 7.58986,9.06627 7.40119,9.06627 3.61492,5.28 "/>
     <polygon id="_431226632" class="fil1" points="3.61492,5.28 7.40119,9.06627 7.19961,9.06627 3.41335,5.28 "/>
     <polygon id="_431227664" class="fil1" points="3.41335,5.28 7.19961,9.06627 6.99651,9.06627 3.21024,5.28 "/>
     <polygon id="_431227352" class="fil1" points="3.21024,5.28 6.99651,9.06627 6.93598,9.06627 3.14971,5.28 "/>
     <polygon id="_431227616" class="fil1" points="3.14971,5.28 6.93598,9.06627 6.7283,9.06627 2.94203,5.28 "/>
     <polygon id="_431227064" class="fil1" points="2.94203,5.28 6.7283,9.06627 6.26557,9.06627 2.4793,5.28 "/>
     <polygon id="_431226992" class="fil1" points="2.4793,5.28 6.26557,9.06627 6.20828,9.06627 2.42201,5.28 "/>
     <polygon id="_431227640" class="fil1" points="2.42201,5.28 6.20828,9.06627 5.52639,9.06627 1.74013,5.28 "/>
     <polygon id="_431227184" class="fil1" points="5.08654,5.28 8.8728,9.06627 8.19095,9.06627 4.40469,5.28 "/>
     <polygon id="_431227232" class="fil1" points="4.13809,1.84663 7.92435,5.6329 7.94793,5.66128 7.97124,5.69132 7.99428,5.72308 8.01708,5.75661 8.03964,5.79194 8.06197,5.82911 4.2757,2.04284 4.25337,2.00567 4.23081,1.97033 4.20802,1.93681 4.18497,1.90505 4.16167,1.875 "/>
    </g>
    <path id="_435565720" class="fil1" d="M4.2757 2.04284c0.122807,0.275346 0.303028,0.843831 0.0947913,1.63351 0.00222835,-0.153917 -0.0928386,-0.2165 -0.21148,-0.291587 0.0313268,0.0941417 0.143988,0.283437 0.154646,0.472252 0.00198031,0.0351614 -0.000562992,0.0699094 -0.00688189,0.104402 0.00957087,0.019752 0.0119449,0.0420315 0.0106929,0.0660236 -6.69291e-005,0.00130709 -0.000137795,0.00260236 -0.000208661,0.00388976 0.302098,0.157272 0.420059,0.252079 0.479685,0.304854 0.135138,0.119579 0.209894,0.565323 0.289591,0.943811l-0.68185 0 -0.0573268 0 -0.464228 0 -0.0795354 0 -0.188677 0 -0.201571 0 -0.203106 0 -0.0605276 0 -0.207685 0 -0.462724 0 -0.0572953 0 -0.681882 0c0.0797047,-0.378488 0.154453,-0.824232 0.289594,-0.943811 0.0580669,-0.051378 0.174965,-0.144543 0.462059,-0.29576 -0.000437008,-0.00434252 -0.000779528,-0.00866929 -0.00100394,-0.0129843 -0.00284646,-0.0545512 0.0130354,-0.100232 0.089685,-0.127512 -0.0187244,-0.135354 0.0067874,-0.284035 0.0900079,-0.408252 -0.175846,0.0780591 -0.16539,0.395984 -0.197563,0.328059 -0.0494134,-0.068874 -0.144339,-0.297087 -0.156051,-0.634634 -0.0100157,-0.288811 0.0408661,-0.652614 0.23328,-1.07528 0.157598,-0.342024 0.452083,-0.569594 0.839252,-0.56302 0.375807,0.00640551 0.649264,0.0894291 0.886315,0.496035z"/>
   </g>
  </g>
  <path class="fil2" d="M3.41333 0c1.88513,0 3.41333,1.5282 3.41333,3.41333 0,1.88513 -1.5282,3.41333 -3.41333,3.41333 -1.88513,0 -3.41333,-1.5282 -3.41333,-3.41333 0,-1.88513 1.5282,-3.41333 3.41333,-3.41333z"/>
  <path class="fil3" d="M3.38939 1.54681c0.375807,0.00640551 0.649264,0.0894291 0.886311,0.496035 0.122811,0.27535 0.303031,0.843831 0.0947953,1.63351 0.00222835,-0.153917 -0.0928386,-0.2165 -0.21148,-0.291583 0.0313268,0.0941378 0.143988,0.283433 0.154646,0.472248 0.00851181,0.151008 -0.0664606,0.294433 -0.165504,0.442626 -0.218882,0.327472 -1.12648,0.324661 -1.47332,-0.155283 -0.121224,-0.167701 -0.143811,-0.444543 -0.0043622,-0.652681 -0.17585,0.0780591 -0.16539,0.395984 -0.197563,0.328059 -0.0494134,-0.068874 -0.144339,-0.297087 -0.156051,-0.634634 -0.0100157,-0.288811 0.0408661,-0.652614 0.233276,-1.07528 0.157602,-0.342024 0.452087,-0.569594 0.839256,-0.56302z"/>
  <path class="fil4" d="M2.49311 2.50709c0.063248,-0.020815 0.143705,0.0509567 0.179752,0.160327 0.0360354,0.10939 0.0139409,0.214929 -0.0493189,0.235772 -0.0632559,0.020815 -0.143705,-0.0509567 -0.179752,-0.160335 -0.0360118,-0.109358 -0.0139094,-0.214921 0.0493189,-0.235764z"/>
  <path class="fil4" d="M4.34224 2.50709c-0.063252,-0.020815 -0.14374,0.0509567 -0.179752,0.160327 -0.0360118,0.10939 -0.0139409,0.214929 0.049315,0.235772 0.0632598,0.020815 0.143709,-0.0509567 0.179752,-0.160335 0.0360118,-0.109358 0.0139449,-0.214921 -0.049315,-0.235764z"/>
  <path class="fil5" d="M3.77245 3.11522l0 0.819772c-0.197496,0.241894 -0.520713,0.23352 -0.718189,0l0 -0.819772c0,-0.442657 0.718189,-0.442657 0.718189,0z"/>
  <path class="fil6" d="M3.0788 3.76151c-0.739539,0.324213 -0.961394,0.497087 -1.04908,0.574677 -0.135146,0.119579 -0.209894,0.565323 -0.289598,0.943811l1.67322 0 1.67319 0c-0.0796969,-0.378488 -0.154453,-0.824232 -0.289591,-0.943811 -0.0876614,-0.0775906 -0.301398,-0.246016 -1.04096,-0.570224l-0.677181 -0.00445276z"/>
  <path class="fil5" d="M2.97924 3.70635l-0.0372087 1.57365 0.941102 0 -0.0372323 -1.57365c-0.288866,0 -0.577768,0 -0.866661,0z"/>
  <path class="fil7" d="M2.84904 4.15131c0.186122,0.138394 0.701591,0.229071 1.16456,0.0333976 -0.319929,0.422783 -0.210004,1.09529 -0.210004,1.09529l-0.653882 0c0,0 -0.0667874,-0.58937 -0.300669,-1.12869z"/>
  <path class="fil8" d="M3.05426 3.51689l0 0.41811 0.155976 1.345 -0.268213 0 -0.295083 -0.599067 0.281665 -0.187756 -0.34422 -0.160945c0,0 0.0722441,-0.564547 0.469874,-0.815346z"/>
  <path class="fil4" d="M3.77243 3.11522l0 0.54885c-0.135862,0.0990433 -0.266854,0.154539 -0.359083,0.154539 -0.0922244,0 -0.22322,-0.0554961 -0.359083,-0.154539l0 -0.54885c0,-0.442657 0.718165,-0.442657 0.718165,0z"/>
  <path class="fil8" d="M3.77243 3.51689l2.3622e-005 0.41811 -0.157535 1.345 0.268213 0 0.295059 -0.599067 -0.281642 -0.187756 0.34422 -0.160945c0,0 -0.128374,-0.593402 -0.468339,-0.815346z"/>
  <path class="fil5" d="M3.41335 1.64344c-1.20521,0 -0.771795,1.45626 -0.693067,1.5722 0.0867953,0.127819 0.498346,0.466673 0.693067,0.466673 0.19472,0 0.606236,-0.338854 0.693035,-0.466673 0.0787598,-0.115937 0.512177,-1.5722 -0.693035,-1.5722z"/>
  <path class="fil3" d="M4.19863 2.88671c0,0 -0.0786378,-0.429323 -0.259949,-0.675531 -0.131358,0.288925 -0.261075,0.430413 -0.885035,0.577409 0.188878,-0.158461 0.27676,-0.396154 0.285752,-0.524839 -0.403972,0.11135 -0.653496,0.426268 -0.715858,0.639441 -0.189268,-0.329335 -0.0160827,-0.825815 0.114409,-1.0135 0.251858,-0.362209 0.868807,-0.450177 1.23727,-0.120807 0.255669,0.228567 0.36098,0.177748 0.223413,1.11783z"/>
  <path class="fil9" d="M2.42201 5.28l0.0572953 0c-0.00255906,-0.254815 -0.00255906,-0.438457 -0.00255906,-0.438457 0,0 -0.0253819,0.190858 -0.0547362,0.438457z"/>
  <path class="fil9" d="M4.40469 5.28l-0.0573307 0c0.00255906,-0.254815 0.00255906,-0.438457 0.00255906,-0.438457 0,0 0.0253819,0.190858 0.0547717,0.438457z"/>
  <path class="fil10" d="M3.16703 3.24748c0.104189,-0.0762165 0.212937,-0.031126 0.249287,-0.031126 0.0363701,0 0.13911,-0.0450906 0.243319,0.031126 -0.0518543,0.209575 -0.414146,0.214862 -0.492606,0z"/>
  <path class="fil11" d="M3.17015 3.24638c0.0967244,-0.0341102 0.18222,0.032685 0.243071,0.032685 0.0608504,0 0.146567,-0.0896969 0.243287,-0.0292795 -0.113339,0.115535 -0.372248,0.109276 -0.486358,-0.00340551z"/>
  <path class="fil12" d="M3.16702 3.24638c0.104209,-0.0429764 0.180878,-0.0118228 0.241736,-0.0118228 0.0608504,0 0.146681,-0.0311535 0.25089,0.0118228 -0.113343,0.0647165 -0.378496,0.0625433 -0.492626,0z"/>
  <path class="fil10" d="M3.16753 3.24676c0.103709,-0.0752244 0.192772,-0.0230315 0.253512,-0.0230315 0.0607598,0 0.133886,-0.0524646 0.238094,0.023752 -0.000362205,0.00106299 -0.000814961,0.00210236 -0.00120079,0.00314567 -0.132843,-0.00237795 -0.350256,-0.00372835 -0.490406,-0.00386614z"/>
  <path class="fil13" d="M2.8219 4.70958l0.000322835 0.000751969c0.00180315,0.00419291 0.00359055,0.00840551 0.00519291,0.0125827l0.00245669 0.00643701c0.00722835,0.0189331 0.0144449,0.037878 0.0204055,0.0572598 0.0110118,0.035811 0.0197874,0.0774331 0.0110236,0.114622 -0.0124016,0.0526102 -0.0578031,0.0812756 -0.105594,0.0982874l-0.00943307 -0.0306929c0.0378189,-0.0143386 0.0707441,-0.0386024 0.0811339,-0.0803307 0.00758661,-0.0304764 0.00137795,-0.0630551 -0.0076811,-0.0925039 -0.00574803,-0.0186969 -0.0127087,-0.0369764 -0.0196811,-0.0552441l-0.00245669 -0.00643701c-0.00153543,-0.00402756 -0.00324803,-0.00809449 -0.00498819,-0.0121457l-0.000122047 -0.000279528 0.0294213 -0.0123071z"/>
  <path class="fil13" d="M2.25193 4.72474l-0.000224409 0.000515748c-0.00174016,0.0040748 -0.00344488,0.00818898 -0.00484646,0.0121496l-0.00199606 0.00564567 4.72441e-005 0.000114173c-0.0152402,0.043311 -0.0320394,0.0960591 -0.0280591,0.141362 0.00449606,0.0511929 0.038252,0.078689 0.0839685,0.0907165l-0.00574016 0.0315787c-0.0629606,-0.015185 -0.103917,-0.0504213 -0.109972,-0.119394 -0.00435039,-0.0495039 0.0115787,-0.103157 0.0279567,-0.150236l0.00373622 -0.010374c0.00141339,-0.00392126 0.00305118,-0.00793307 0.00472441,-0.0119173l8.26772e-005 -0.000204724 0.0303228 0.0100433z"/>
  <path class="fil14" d="M2.20691 4.70983c0.0131417,-0.0320315 0.0510984,-0.122811 0.089563,-0.214819 0.0289055,-0.0691299 0.0580906,-0.138933 0.0767913,-0.18385l-4.72441e-005 -0.000114173c0.0172087,-0.041315 0.0409134,-0.0730748 0.0677283,-0.0942087 0.0246378,-0.0194173 0.0519213,-0.0299134 0.0795709,-0.0308307 0.0283071,-0.000940945 0.056252,0.00800787 0.0814449,0.0275197 0.0239055,0.0185157 0.0452165,0.0466929 0.0615354,0.0850709 0.0189488,0.0445709 0.0505472,0.118579 0.0819016,0.192035 0.0382205,0.0895276 0.0760866,0.178228 0.0905118,0.212343l-0.0142835 0.00597638 0.000275591 0.000629921 -0.0294213 0.0123071 -0.000271654 -0.000629921 -0.0143858 0.00601575c-0.0137165,-0.0324528 -0.0518858,-0.121858 -0.0904134,-0.212114 -0.0313583,-0.0734528 -0.0629567,-0.147461 -0.0819055,-0.192031 -0.0118346,-0.0278346 -0.0263622,-0.0475512 -0.0421024,-0.0597441 -0.0130945,-0.0101417 -0.0270039,-0.014815 -0.0406102,-0.0143622 -0.0142717,0.000472441 -0.0289803,0.00638583 -0.0429134,0.0173701 -0.0184409,0.0145315 -0.0352992,0.0377126 -0.048315,0.0689567l-8.26772e-005 -3.54331e-005c-0.0193189,0.0464055 -0.048248,0.115594 -0.0768898,0.184098 -0.0373858,0.0894213 -0.0742953,0.177701 -0.0877598,0.210185l-0.014878 -0.00490945 -2.3622e-005 5.51181e-005 -0.0303228 -0.0100433 7.87402e-006 -1.5748e-005 -0.0118858 -0.00392126 -0.0028189 -0.000933071z"/>
  <polygon class="fil15" points="2.2069,4.70983 2.20691,4.70983 2.20972,4.71076 "/>
  <path class="fil14" d="M2.72011 5.04417c-0.0158268,0.00661811 -0.0328425,0.00619685 -0.0475512,0.000165354 -0.0147126,-0.00603543 -0.027126,-0.0176811 -0.0337441,-0.0335039 -0.00662205,-0.0158228 -0.00620079,-0.0328386 -0.000165354,-0.0475512 0.0060315,-0.0147126 0.0176772,-0.027126 0.0335,-0.0337441 0.0158228,-0.00662205 0.0328386,-0.00620079 0.0475512,-0.000165354 0.0147126,0.0060315 0.027126,0.0176772 0.0337441,0.0335 0.00662205,0.0158268 0.00620079,0.0328425 0.000165354,0.0475512 -0.0060315,0.0147165 -0.0176772,0.027126 -0.0335,0.033748z"/>
  <path class="fil14" d="M2.37151 5.0512c-0.0158228,0.00661811 -0.0328386,0.00619685 -0.0475472,0.000165354 -0.0147126,-0.0060315 -0.027126,-0.0176772 -0.0337441,-0.0335039 -0.00662205,-0.0158228 -0.00620079,-0.0328346 -0.000165354,-0.0475512 0.0060315,-0.0147087 0.0176772,-0.027122 0.0335,-0.0337441 0.0158228,-0.00661811 0.0328386,-0.00619685 0.0475512,-0.000165354 0.0147126,0.00603543 0.027126,0.0176772 0.0337441,0.0335039 0.00662205,0.0158228 0.00620079,0.0328386 0.000165354,0.0475512 -0.0060315,0.0147126 -0.0176772,0.027122 -0.0335039,0.0337441z"/>
  <path class="fil16" d="M2.71709 3.91167c-0.165594,0.0115984 -0.192972,0.0562874 -0.189965,0.113921 0.00088189,0.0168937 0.00414961,0.0357992 0.00751969,0.0553268 0.00594882,0.0344488 0.0122205,0.0707559 0.00779134,0.107839l-0.036626 -0.000956693c0.00461811,-0.0329803 -0.0013937,-0.0677835 -0.00709055,-0.100752 -0.00351575,-0.020374 -0.0069252,-0.0401024 -0.00794488,-0.0596063 -0.00420472,-0.0806024 0.0324724,-0.141846 0.245669,-0.152965 -0.00194882,0.00416535 -0.0180276,0.0371024 -0.0193543,0.0371929z"/>
  <path class="fil16" d="M4.09115 3.91167c0.165594,0.0115984 0.192969,0.0562874 0.189965,0.113921 -0.00418504,0.0801496 -0.0125315,0.113067 -0.00294882,0.203307 0.00738976,0.069563 0.0214843,0.145677 0.0446575,0.187937l0.036626 -0.000956693c-0.0242047,-0.0426614 -0.042248,-0.125224 -0.0486181,-0.194862 -0.00706693,-0.0772165 0.00293701,-0.122736 0.00663386,-0.193575 0.00420079,-0.0806024 -0.0324724,-0.141846 -0.245673,-0.152965 0.00195276,0.00416535 0.0180276,0.0371024 0.0193583,0.0371929z"/>
  <line class="fil17" x1="4.35382" y1="4.46837" x2="4.35381" y2= "4.46837" />
  <line class="fil17" x1="4.35287" y1="4.40534" x2="4.35288" y2= "4.40534" />
  <line class="fil17" x1="4.41777" y1="4.53095" x2="4.41777" y2= "4.53094" />
  <line class="fil17" x1="4.48081" y1="4.53001" x2="4.48081" y2= "4.53001" />
  <path class="fil14" d="M4.35615 4.65794l-3.93701e-006 0c-0.0349409,0.000425197 -0.0667165,-0.013315 -0.0898346,-0.035874 -0.0231457,-0.0225866 -0.0376772,-0.0539724 -0.0381063,-0.0887953l0 -3.93701e-006c-0.000425197,-0.034937 0.013315,-0.0667126 0.035874,-0.0898307 0.0225866,-0.0231457 0.0539685,-0.0376772 0.0887913,-0.0381024l7.87402e-006 0c0.0349409,-0.000429134 0.0667126,0.013311 0.0898307,0.0358701 0.0231457,0.0225866 0.0376772,0.0539724 0.0381024,0.0887913l0 7.87402e-006c0.000429134,0.0349409 -0.013315,0.0667126 -0.0358701,0.0898307 -0.0225866,0.0231457 -0.0539724,0.0376772 -0.0887913,0.0381063z"/>
  <path class="fil18" d="M4.35539 4.59911l-3.93701e-006 0c-0.0186654,0.000228346 -0.0356378,-0.00711417 -0.0479921,-0.0191654 -0.0123622,-0.0120669 -0.020122,-0.0288307 -0.0203504,-0.0474331l-3.93701e-006 -3.93701e-006c-0.000228346,-0.0186654 0.00711417,-0.0356378 0.0191654,-0.0479882 0.012063,-0.0123622 0.0288307,-0.020126 0.0474331,-0.0203543l3.93701e-006 0c0.0186654,-0.000232283 0.0356378,0.00711024 0.0479882,0.0191614 0.0123622,0.0120669 0.020126,0.0288307 0.0203543,0.0474331l0 3.93701e-006c0.000232283,0.0186654 -0.00711024,0.0356378 -0.0191614,0.0479882 -0.0120669,0.0123661 -0.0288307,0.020126 -0.0474331,0.0203583z"/>
  <path class="fil19" d="M4.35524 4.58943l3.93701e-006 -3.93701e-006c0.00785433,-9.44882e-005 0.0153031,-0.00174016 0.0220512,-0.0046378 0.007,-0.003 0.0133071,-0.00737795 0.0185906,-0.0127913 0.00526772,-0.00539764 0.00948425,-0.0118228 0.0123228,-0.0189331 0.00272835,-0.00683465 0.00419291,-0.0143189 0.00409449,-0.0221535l0 -3.93701e-006c-9.44882e-005,-0.00785433 -0.00174016,-0.0153031 -0.0046378,-0.0220512 -0.00300394,-0.007 -0.00738189,-0.0133071 -0.0127953,-0.0185906 -0.00539764,-0.00526772 -0.0118228,-0.00948425 -0.0189291,-0.0123228 -0.00683465,-0.00273228 -0.0143189,-0.00419291 -0.0221535,-0.00409449l-7.87402e-006 -3.93701e-006c-0.00785433,9.84252e-005 -0.0152992,0.00174409 -0.0220512,0.00464173 -0.007,0.00300394 -0.0133031,0.00738189 -0.0185866,0.0127953 -0.00526772,0.00539764 -0.00948425,0.0118189 -0.0123228,0.0189291 -0.00273228,0.00683465 -0.00419291,0.0143189 -0.00409843,0.0221535l3.93701e-006 3.93701e-006c9.44882e-005,0.00785433 0.00174016,0.0153031 0.0046378,0.0220512 0.003,0.007 0.00737795,0.0133071 0.0127913,0.0185906 0.00539764,0.00526772 0.0118228,0.00948819 0.0189291,0.0123228 0.00683858,0.00273228 0.0143228,0.00419291 0.0221575,0.00409843zm0.000291339 0.0193622c-0.0104724,0.000125984 -0.0204921,-0.00183071 -0.0296417,-0.00548819 -0.0095,-0.00379134 -0.0180669,-0.00940945 -0.025252,-0.0164213 -0.00718504,-0.00701181 -0.0130197,-0.0154449 -0.0170591,-0.0248583 -0.00388189,-0.00905512 -0.00609055,-0.0189764 -0.00622047,-0.0293661l0 -3.93701e-006c-0.000125984,-0.0104724 0.00183071,-0.0204882 0.00548819,-0.0296417 0.00379134,-0.0095 0.00940945,-0.0180669 0.0164213,-0.025248 0.00700787,-0.00718504 0.0154409,-0.0130197 0.0248583,-0.017063 0.00905118,-0.00388583 0.0189764,-0.00609055 0.0293661,-0.00621654l7.87402e-006 0c0.0104685,-0.000129921 0.0204843,0.00182677 0.0296378,0.00548031 0.0095,0.00379528 0.0180669,0.00941732 0.025248,0.0164252 0.00718504,0.00701181 0.0130197,0.0154409 0.017063,0.0248583 0.00388583,0.00905512 0.00609055,0.0189764 0.00621654,0.0293661l0 7.87402e-006c0.000129921,0.0104685 -0.00182677,0.0204843 -0.00548425,0.0296378 -0.00379134,0.0095 -0.00941339,0.0180669 -0.0164213,0.025248 -0.00701181,0.00718504 -0.0154449,0.0130236 -0.0248583,0.017063 -0.00905512,0.00388583 -0.0189764,0.00609055 -0.0293661,0.00622047l-3.93701e-006 0zm-0.00174803 -0.134945l-3.93701e-006 -3.93701e-006m-0.000283465 -0.0193583l3.93701e-006 0m0.0588031 0.0764213l0 0m0.0193622 -0.000283465l0 0"/>
  <path class="fil20" d="M3.79967 2.65112c0.217291,-0.014748 0.336287,0.0253622 0.358551,0.0336811 0.0268268,0.0100591 0.0206614,0.0826339 -0.00205906,0.0970906 -0.0227165,0.0144685 -0.0412835,0.0722953 -0.0950079,0.144587 -0.0345315,0.0464764 -0.155449,0.0661535 -0.261484,0.0714094l0 -0.0202992c0.0866811,-0.00400787 0.177472,-0.0195157 0.216969,-0.0466969 0.0801535,-0.0551929 0.0877913,-0.172654 0.0289134,-0.227327 -0.030874,-0.0287126 -0.1385,-0.0367087 -0.245882,-0.0315906l0 -0.0208543zm-0.772646 0l0 0 0.00910236 0.000653543c0.223071,0.0165157 0.270591,0.0598937 0.293307,0.0578386 0.0265748,-0.00241732 0.0552874,-0.00604724 0.0824094,-0.00604724 0.027122,0 0.0578346,0.00352756 0.0854409,0.00604724 0.0227165,0.00205512 0.0702087,-0.0413228 0.29328,-0.0578386l0.0091063 -0.000653543 0 0.0208543 -0.00111024 6.29921e-005c-0.107772,0.00523228 -0.248339,0.0302205 -0.275941,0.0919803 -0.0275787,0.061748 0.0249606,0.172122 0.101173,0.199701 0.0345906,0.0125315 0.103811,0.0171654 0.175878,0.0138701l0 0.0202992c-0.0589449,0.00290945 -0.113248,0.00137402 -0.145626,-0.00251181 -0.0908622,-0.010874 -0.158843,-0.120528 -0.171217,-0.153591 -0.0278701,-0.0742441 -0.111094,-0.0742441 -0.138937,0 -0.0124016,0.033063 -0.0803819,0.142717 -0.17124,0.153591 -0.0323819,0.00388583 -0.086685,0.00542126 -0.145626,0.00251181l0 -0.0202992c0.0720906,0.00329528 0.141315,-0.00133858 0.175909,-0.0138701 0.0761772,-0.0275787 0.128756,-0.137953 0.101142,-0.199701 -0.0275787,-0.0617598 -0.168173,-0.086748 -0.275917,-0.0919803l-0.00113386 -6.29921e-005 0 -0.0208543zm-0.358555 0.0336811l0 0c0.0222913,-0.0083189 0.141287,-0.0484291 0.358555,-0.0336811l0 0.0208543c-0.107346,-0.00515354 -0.214984,0.00290551 -0.245886,0.0315906 -0.0588504,0.0546732 -0.0512402,0.172134 0.0289134,0.227327 0.0394961,0.0271811 0.130287,0.042689 0.216972,0.0466969l0 0.0202992c-0.106039,-0.00525591 -0.226957,-0.0249331 -0.261461,-0.0714094 -0.0537126,-0.0722913 -0.0722913,-0.130118 -0.0950079,-0.144587 -0.022748,-0.0144567 -0.0289134,-0.0870315 -0.00208661,-0.0970906z"/>
  <path class="fil21" d="M2.78113 2.70357c0.0310079,-0.0287795 0.139287,-0.0367756 0.24702,-0.0315276 0.107744,0.00523228 0.248339,0.0302205 0.275917,0.0919803 0.0276142,0.061748 -0.0249646,0.172122 -0.101142,0.199701 -0.0762402,0.0276142 -0.320563,0.0169764 -0.392882,-0.0328268 -0.0801535,-0.0551929 -0.0877638,-0.172654 -0.0289134,-0.227327z"/>
  <path class="fil21" d="M4.04555 2.70357c-0.0309685,-0.0287795 -0.13926,-0.0367756 -0.246992,-0.0315276 -0.107772,0.00523228 -0.248339,0.0302205 -0.275941,0.0919803 -0.0275787,0.061748 0.0249606,0.172122 0.101173,0.199701 0.0762047,0.0276142 0.320528,0.0169764 0.392846,-0.0328268 0.0801535,-0.0551929 0.0877913,-0.172654 0.0289134,-0.227327z"/>
 </g>
</svg>
