<?xml version="1.0" standalone="no"?>
<!DOCTYPE svg PUBLIC "-//W3C//DTD SVG 20010904//EN"
 "http://www.w3.org/TR/2001/REC-SVG-20010904/DTD/svg10.dtd">
<svg version="1.0" xmlns="http://www.w3.org/2000/svg"
 width="412.000000pt" height="241.000000pt" viewBox="0 0 412.000000 241.000000"
 preserveAspectRatio="xMidYMid meet">

<g transform="translate(0.000000,241.000000) scale(0.100000,-0.100000)"
fill="#000000" stroke="none">
<path d="M1546 1424 c-33 -33 -7 -94 41 -94 25 0 53 30 53 57 0 44 -63 69 -94
37z"/>
<path d="M2000 1423 c249 -13 453 -44 630 -95 135 -39 158 -43 90 -17 -189 72
-477 121 -690 117 -54 -1 -65 -3 -30 -5z"/>
<path d="M1362 1354 c-27 -18 -28 -45 -4 -67 24 -22 35 -21 55 1 22 24 21 45
-1 65 -23 21 -22 21 -50 1z"/>
<path d="M1207 1264 c-13 -13 -7 -52 8 -58 27 -10 46 5 43 33 -3 26 -35 41
-51 25z"/>
<path d="M2363 1046 c-43 -20 -63 -62 -63 -135 0 -72 14 -108 51 -127 39 -20
148 -18 178 2 66 47 69 207 4 249 -35 23 -130 29 -170 11z m145 -52 c19 -13
22 -24 22 -83 0 -84 -10 -95 -91 -96 -80 0 -94 15 -94 101 0 53 4 68 19 80 27
19 116 18 144 -2z"/>
<path d="M1100 910 l0 -140 25 0 c25 0 25 1 25 88 l1 87 37 -85 c35 -76 41
-85 68 -88 28 -2 31 1 63 78 19 45 38 83 43 86 4 3 8 -33 8 -80 0 -79 2 -86
20 -86 19 0 20 7 20 140 l0 140 -28 0 c-25 0 -31 -8 -71 -102 -24 -57 -47
-107 -51 -111 -4 -4 -29 42 -55 102 -45 104 -49 111 -76 111 l-29 0 0 -140z"/>
<path d="M1450 910 l0 -140 111 0 c109 0 110 0 107 23 -3 20 -9 22 -85 25
l-83 3 0 34 0 35 60 0 c53 0 60 2 60 20 0 16 -8 19 -57 22 l-58 3 0 35 0 35
83 3 c74 3 82 5 82 22 0 19 -7 20 -110 20 l-110 0 0 -140z"/>
<path d="M1710 911 l0 -141 75 0 c137 0 181 39 173 157 -3 53 -9 68 -31 91
-25 25 -35 27 -122 30 l-95 4 0 -141z m186 74 c8 -11 14 -43 14 -76 0 -77 -13
-89 -96 -89 l-64 0 0 88 c0 49 3 92 8 96 4 4 33 6 66 4 42 -3 62 -10 72 -23z"/>
<path d="M2000 910 l0 -140 25 0 c24 0 24 1 27 105 l3 106 70 -105 c65 -98 72
-106 103 -106 l32 0 0 140 0 140 -25 0 -25 0 0 -101 c0 -120 0 -120 -86 11
-54 82 -62 90 -91 90 l-33 0 0 -140z"/>
<path d="M2604 1033 c100 -265 99 -264 130 -261 28 3 32 10 82 141 l53 138
-26 -3 c-22 -3 -30 -16 -65 -105 -22 -57 -44 -101 -47 -98 -4 2 -24 49 -45
104 -34 91 -41 101 -63 101 -20 0 -24 -4 -19 -17z"/>
<path d="M2931 1013 c-8 -21 -31 -82 -52 -137 -22 -54 -39 -100 -39 -102 0 -2
11 -4 24 -4 17 0 27 9 36 30 12 29 15 30 75 30 60 0 63 -1 75 -30 9 -22 19
-30 37 -30 16 0 23 5 20 13 -80 204 -97 249 -97 257 0 6 -15 10 -33 10 -29 0
-35 -4 -46 -37z m83 -121 c7 -21 4 -22 -38 -22 -25 0 -46 2 -46 5 0 2 10 30
22 62 l21 58 17 -40 c9 -22 20 -50 24 -63z"/>
<path d="M1202 611 c-8 -4 -12 -19 -10 -32 2 -19 11 -25 37 -29 19 -3 36 -11
39 -19 3 -10 -5 -12 -37 -9 -25 2 -40 0 -38 -7 6 -18 79 -12 91 8 14 23 -15
47 -57 47 -19 0 -27 4 -24 13 2 7 19 12 41 11 37 -1 48 9 20 20 -22 8 -47 7
-62 -3z"/>
<path d="M1370 561 l0 -61 40 0 c22 0 40 5 40 10 0 6 -13 10 -30 10 -29 0 -30
2 -30 44 0 25 -4 48 -10 51 -6 4 -10 -17 -10 -54z"/>
<path d="M1558 609 c-21 -12 -25 -78 -6 -97 16 -16 70 -16 86 0 20 20 15 86
-7 98 -25 13 -51 12 -73 -1z m72 -24 c7 -8 10 -25 6 -40 -5 -21 -12 -25 -41
-25 -29 0 -36 4 -41 25 -8 31 10 55 41 55 12 0 28 -7 35 -15z"/>
<path d="M1758 609 c-21 -12 -25 -78 -6 -97 16 -16 70 -16 86 0 7 7 12 22 12
35 0 18 -6 23 -25 23 -14 0 -25 -4 -25 -10 0 -5 7 -10 15 -10 8 0 15 -7 15
-15 0 -10 -11 -15 -35 -15 -29 0 -36 4 -41 25 -8 33 11 55 48 55 17 0 27 4 23
10 -8 13 -45 12 -67 -1z"/>
<path d="M1961 598 c-5 -13 -16 -40 -24 -60 -14 -34 -8 -54 8 -28 9 14 62 12
68 -2 2 -7 8 -10 12 -6 9 9 -34 118 -46 118 -5 0 -13 -10 -18 -22z m33 -33 c3
-9 -1 -18 -10 -22 -19 -7 -26 0 -18 21 8 20 20 21 28 1z"/>
<path d="M2120 560 c0 -67 17 -82 22 -19 l3 41 25 -41 c37 -59 50 -53 48 22
-1 49 -2 53 -5 20 -2 -24 -8 -43 -12 -43 -5 0 -20 18 -35 40 -14 22 -31 40
-36 40 -6 0 -10 -27 -10 -60z"/>
<path d="M2412 560 c0 -41 3 -56 7 -40 5 19 14 26 39 28 29 3 32 0 32 -22 0
-14 5 -26 10 -26 6 0 10 27 10 61 0 37 -4 58 -10 54 -5 -3 -10 -15 -10 -26 0
-15 -7 -19 -34 -19 -30 0 -35 4 -39 28 -2 15 -4 -2 -5 -38z"/>
<path d="M2597 613 c-4 -3 -7 -30 -7 -60 l0 -53 45 0 c25 0 45 5 45 10 0 6
-16 10 -35 10 -24 0 -35 5 -35 15 0 9 9 15 25 15 14 0 25 5 25 10 0 6 -11 10
-25 10 -16 0 -25 6 -25 15 0 10 11 15 35 15 19 0 35 5 35 10 0 11 -73 14 -83
3z"/>
<path d="M2760 560 c0 -33 4 -60 10 -60 6 0 10 9 10 20 0 11 7 20 15 20 8 0
20 -9 27 -20 19 -30 23 -25 25 32 3 58 -5 68 -54 68 l-33 0 0 -60z m78 18 c3
-14 -3 -18 -27 -18 -25 0 -31 4 -31 21 0 16 5 20 27 17 17 -2 29 -10 31 -20z"/>
<path d="M2940 560 l0 -60 40 0 c22 0 40 5 40 10 0 6 -13 10 -30 10 -20 0 -30
5 -30 15 0 9 9 15 25 15 14 0 25 5 25 10 0 6 -11 10 -25 10 -16 0 -25 6 -25
15 0 10 10 15 30 15 17 0 30 5 30 10 0 6 -18 10 -40 10 l-40 0 0 -60z"/>
</g>
</svg>
